<?xml version="1.0" encoding="UTF-8" standalone="no"?><!DOCTYPE svg PUBLIC "-//W3C//DTD SVG 1.1//EN" "http://www.w3.org/Graphics/SVG/1.1/DTD/svg11.dtd"><svg width="100%" height="100%" viewBox="0 0 667 667" version="1.1" xmlns="http://www.w3.org/2000/svg" xmlns:xlink="http://www.w3.org/1999/xlink" xml:space="preserve" xmlns:serif="http://www.serif.com/" style="fill-rule:evenodd;clip-rule:evenodd;stroke-linejoin:round;stroke-miterlimit:2;"><path d="M333.335,0c-184.002,0 -333.335,149.333 -333.335,333.333c0,184 149.333,333.334 333.335,333.334c184,-0 333.333,-149.334 333.333,-333.334c0,-184 -149,-333.333 -333.333,-333.333Zm-41.667,434.333c0,16 -6.666,22.334 -23.67,22.334l-43.331,-0c-17,-0 -23.667,-6.334 -23.667,-22.334l0,-202c0,-16 6.667,-22.333 23.667,-22.333l43,-0c16.998,-0 23.665,6.333 23.665,22.333l-0,202l0.336,0Zm175.997,0c-0,16 -6.667,22.334 -23.667,22.334l-43,-0c-17,-0 -23.666,-6.334 -23.666,-22.334l-0,-202c-0,-16 6.666,-22.333 23.666,-22.333l43,-0c17,-0 23.667,6.333 23.667,22.333l-0,202Z" style="fill-rule:nonzero;"/></svg>
