<?xml version="1.0" encoding="UTF-8" standalone="no"?><!DOCTYPE svg PUBLIC "-//W3C//DTD SVG 1.1//EN" "http://www.w3.org/Graphics/SVG/1.1/DTD/svg11.dtd"><svg width="100%" height="100%" viewBox="0 0 664 664" version="1.1" xmlns="http://www.w3.org/2000/svg" xmlns:xlink="http://www.w3.org/1999/xlink" xml:space="preserve" xmlns:serif="http://www.serif.com/" style="fill-rule:evenodd;clip-rule:evenodd;stroke-linejoin:round;stroke-miterlimit:2;"><clipPath id="_clip1"><rect id="play.svg" x="0" y="0" width="663.826" height="663.826"/></clipPath><g clip-path="url(#_clip1)"><path d="M331.913,0c-183.31,0 -331.913,148.603 -331.913,331.913c0,183.31 148.603,331.913 331.913,331.913c183.31,0 331.913,-148.603 331.913,-331.913c0,-183.31 -148.603,-331.913 -331.913,-331.913Zm121.344,361.492l-175.458,101.3c-5.411,3.125 -11.904,4.779 -18.066,4.779c-19.562,-0 -35.849,-15.914 -35.849,-35.476l-0,-202.601c-0,-19.562 16.287,-35.476 35.849,-35.476c6.164,0 12.469,1.652 17.883,4.779l175.549,101.299c11.1,6.408 17.772,17.883 17.772,30.697c-0,12.814 -6.581,24.291 -17.68,30.699Z" style="fill-rule:nonzero;"/></g></svg>